<svg xmlns="http://www.w3.org/2000/svg" width="34.658" height="24"><path fill-rule="evenodd" opacity=".702" fill="#998C7F" d="M12.41 17.632C4.73 17.632.004 8.821.004 8.821S4.775.009 12.41.009c7.229 0 12.636 8.812 12.636 8.812s-5.452 8.811-12.636 8.811zm.068-12.761c-2.091 0-3.787 1.773-3.787 3.96 0 2.187 1.696 3.959 3.787 3.959 2.092 0 3.787-1.772 3.787-3.959 0-2.187-1.695-3.96-3.787-3.96zm.023 5.922c-1.041 0-1.885-.882-1.885-1.971 0-1.088.844-1.97 1.885-1.97s1.885.882 1.885 1.97c0 1.089-.844 1.971-1.885 1.971z"/></svg>