<svg xmlns="http://www.w3.org/2000/svg" width="38.665" height="37.342"><path fill-rule="evenodd" fill="#8E8071" d="M14.975 27.999C7.231 27.999.953 21.751.953 14.044.953 6.338 7.231.09 14.975.09c7.745 0 14.022 6.248 14.022 13.954 0 7.707-6.277 13.955-14.022 13.955zm0-25.351c-6.324 0-11.451 5.102-11.451 11.396 0 6.294 5.127 11.397 11.451 11.397 6.325 0 11.452-5.103 11.452-11.397 0-6.294-5.127-11.396-11.452-11.396zm2.179 20.417h-4.357v-6.778h-1.603V10.58a.86.86 0 0 1 .263-.634.87.87 0 0 1 .639-.262h5.759c.234 0 .442.087.626.262a.842.842 0 0 1 .275.634v5.707h-1.602v6.778zM14.975 8.936c-1.302 0-1.953-.647-1.953-1.943 0-1.313.651-1.969 1.953-1.969 1.303 0 1.954.656 1.954 1.969 0 1.296-.651 1.943-1.954 1.943z"/></svg>