<svg xmlns="http://www.w3.org/2000/svg" width="26.683" height="30.652"><path fill-rule="evenodd" fill="#FFF" d="M16.25 15.334c-.859 0-1.648.298-2.28.795l-6.524-4.001c.033-.205.054-.414.054-.628a3.92 3.92 0 0 0-.054-.627l6.524-4.002a3.674 3.674 0 0 0 2.28.796c2.071 0 3.75-1.717 3.75-3.834C20 1.717 18.321 0 16.25 0c-2.071 0-3.75 1.717-3.75 3.833 0 .215.022.423.055.628L6.031 8.462a3.676 3.676 0 0 0-2.281-.795C1.679 7.667 0 9.383 0 11.5s1.679 3.834 3.75 3.834c.859 0 1.649-.299 2.281-.796l6.524 4.001a3.942 3.942 0 0 0-.055.628c0 2.117 1.679 3.833 3.75 3.833 2.071 0 3.75-1.716 3.75-3.833s-1.679-3.833-3.75-3.833z"/></svg>