<svg xmlns="http://www.w3.org/2000/svg" width="19.994" height="19.994"><path fill-rule="evenodd" opacity=".502" fill="#8E8071" d="M11.711 4.555a.447.447 0 0 0 .633 0l2.477-1.951a3.742 3.742 0 0 1-.907 3.796 3.742 3.742 0 0 1-3.616.96l-2.939 2.938a3.74 3.74 0 0 1-.959 3.617c-1.028 1.028-2.5 1.319-3.796.906l1.951-2.476a.45.45 0 0 0 0-.633l-1.266-1.266a.447.447 0 0 0-.633 0l-2.477 1.95c-.412-1.296-.121-2.767.907-3.795a3.74 3.74 0 0 1 3.617-.96l2.938-2.938a3.74 3.74 0 0 1 .96-3.617C9.629.058 11.1-.233 12.396.179l-1.95 2.477a.447.447 0 0 0 0 .633l1.265 1.266z"/></svg>